<?xml version="1.0" encoding="UTF-8" standalone="no" ?>
<!DOCTYPE svg PUBLIC "-//W3C//DTD SVG 1.1//EN" "http://www.w3.org/Graphics/SVG/1.1/DTD/svg11.dtd">
<svg xmlns="http://www.w3.org/2000/svg" xmlns:xlink="http://www.w3.org/1999/xlink" version="1.1" width="400" height="400" viewBox="0 0 400 400" xml:space="preserve">
<desc>Created with Fabric.js 3.6.2</desc>
<defs>
</defs>
<g transform="matrix(12.5 0 0 12.5 200 200)"  >
<path style="stroke: none; stroke-width: 1; stroke-dasharray: none; stroke-linecap: butt; stroke-dashoffset: 0; stroke-linejoin: miter; stroke-miterlimit: 4; fill: rgb(0,0,0); fill-rule: nonzero; opacity: 1;"  transform=" translate(-8, -8)" d="M 0 1.5 A 1.5 1.5 0 0 1 1.5 0 h 13 A 1.5 1.5 0 0 1 16 1.5 v 13 a 1.5 1.5 0 0 1 -1.5 1.5 h -13 A 1.5 1.5 0 0 1 0 14.5 v -13 z M 1.5 1 a 0.5 0.5 0 0 0 -0.5 0.5 V 5 h 4 V 1 H 1.5 z M 5 6 H 1 v 4 h 4 V 6 z m 1 4 h 4 V 6 H 6 v 4 z m -1 1 H 1 v 3.5 a 0.5 0.5 0 0 0 0.5 0.5 H 5 v -4 z m 1 0 v 4 h 4 v -4 H 6 z m 5 0 v 4 h 3.5 a 0.5 0.5 0 0 0 0.5 -0.5 V 11 h -4 z m 0 -1 h 4 V 6 h -4 v 4 z m 0 -5 h 4 V 1.5 a 0.5 0.5 0 0 0 -0.5 -0.5 H 11 v 4 z m -1 0 V 1 H 6 v 4 h 4 z" stroke-linecap="round" />
</g>
</svg>